<svg width="202" height="48" viewBox="0 0 202 48" fill="none" xmlns="http://www.w3.org/2000/svg">
<g clip-path="url(#clip0_5868_2263)">
<path d="M123.475 41.9287C123.579 42.6016 123.665 43.2744 123.736 43.9473V43.9551L126.754 38.5225H127.954L123.654 46.1641C123.239 46.9079 122.869 47.4015 122.548 47.6445C122.226 47.8875 121.856 48.0078 121.438 48.0078C121.172 48.0078 120.91 47.9627 120.656 47.873L120.728 46.793C120.963 46.8602 121.187 46.8936 121.419 46.8936C121.651 46.8935 121.841 46.841 121.983 46.7363C122.17 46.5942 122.372 46.3323 122.593 45.9473L122.963 45.2861L121.838 38.5186H122.967L123.475 41.9287ZM149.264 38.3662C150.148 38.3662 150.827 38.7831 151.306 39.6172L151.533 38.5117H152.588L151.227 45.0244C151.081 45.7421 150.887 46.2992 150.644 46.6992C150.404 47.0992 150.068 47.4093 149.638 47.6299C149.208 47.8504 148.692 47.9589 148.15 47.959C147.608 47.959 147.141 47.8883 146.748 47.75C146.359 47.6117 146.067 47.4059 145.873 47.1367C145.682 46.8675 145.585 46.5606 145.585 46.2129C145.585 46.1045 145.593 45.9924 145.615 45.8691L146.778 45.9775C146.767 46.2392 146.8 46.4375 146.871 46.5684C146.942 46.7029 147.058 46.804 147.215 46.875C147.424 46.9684 147.694 47.0127 148.022 47.0127C148.718 47.0127 149.216 46.8335 149.522 46.4746C149.721 46.2352 149.907 45.7075 150.075 44.9004L150.191 44.3555C149.593 44.961 148.968 45.2637 148.284 45.2637C147.6 45.2636 147.032 45.0126 146.572 44.5117C146.113 44.0108 145.885 43.3005 145.885 42.3809C145.885 41.622 146.064 40.9265 146.427 40.291C146.789 39.6556 147.219 39.1768 147.72 38.8516C148.221 38.5264 148.733 38.3663 149.264 38.3662ZM92.1123 38.373C92.7552 38.3731 93.2895 38.609 93.7119 39.0762C94.1344 39.5435 94.3477 40.2168 94.3477 41.0879C94.3476 41.7905 94.2317 42.4295 94 43.0088C93.7682 43.5882 93.4837 44.0519 93.1436 44.4033C92.8071 44.7547 92.4629 45.0132 92.1152 45.1777C91.7714 45.3421 91.4123 45.4238 91.0498 45.4238C90.2424 45.4237 89.6148 45.0128 89.1699 44.1904L88.4072 47.8545H87.2559L89.207 38.5225H90.2686L90.0703 39.4609C90.4629 39.0497 90.8186 38.7625 91.1289 38.6055C91.4391 38.4448 91.7677 38.3663 92.1152 38.3662L92.1123 38.373ZM160.005 38.3662C160.85 38.3662 161.496 38.5606 161.938 38.9531C162.379 39.3457 162.607 39.8617 162.626 40.501L161.5 40.5752C161.481 40.1715 161.336 39.8459 161.066 39.6104C160.794 39.3751 160.412 39.2559 159.915 39.2559C159.519 39.2559 159.209 39.3453 158.988 39.5283L158.992 39.54C158.772 39.7232 158.663 39.9178 158.663 40.1309C158.663 40.3438 158.757 40.5308 158.947 40.6914C159.075 40.8036 159.4 40.9713 159.931 41.1992C160.809 41.5804 161.366 41.88 161.594 42.1006C161.956 42.452 162.14 42.8782 162.14 43.3828C162.14 43.7155 162.039 44.0447 161.833 44.3662C161.631 44.6877 161.317 44.9423 160.895 45.1367C160.476 45.3272 159.979 45.4238 159.407 45.4238C158.626 45.4238 157.964 45.2298 157.418 44.8447C156.872 44.4597 156.614 43.8312 156.644 42.9639L157.796 42.8936C157.796 43.2224 157.848 43.5066 157.949 43.7383C158.05 43.97 158.237 44.1648 158.51 44.3105C158.783 44.4562 159.104 44.5303 159.467 44.5303C159.975 44.5303 160.356 44.4263 160.61 44.2246C160.865 44.0227 160.992 43.7825 160.992 43.5059C160.992 43.3079 160.917 43.1207 160.764 42.9414C160.606 42.762 160.225 42.5457 159.616 42.2842C159.007 42.0227 158.619 41.8391 158.45 41.7344C158.166 41.5624 157.949 41.3566 157.807 41.1211C157.661 40.8856 157.59 40.6161 157.59 40.3096C157.59 39.7751 157.803 39.3188 158.226 38.9375C158.652 38.5563 159.242 38.3662 160.005 38.3662ZM84.792 38.3623C85.6367 38.3624 86.2835 38.5567 86.7246 38.9492C87.1656 39.3418 87.3934 39.8579 87.4121 40.4971L86.2871 40.5713C86.2684 40.1678 86.1262 39.8429 85.8535 39.6074C85.5806 39.3719 85.1993 39.252 84.7021 39.252C84.3059 39.252 83.995 39.3412 83.7744 39.5244C83.5539 39.7075 83.4454 39.9022 83.4453 40.1152C83.4453 40.3282 83.5391 40.5151 83.7295 40.6758C83.8566 40.7879 84.1821 40.9566 84.7129 41.1846L84.7207 41.1963C85.5987 41.5774 86.1555 41.8762 86.3838 42.0967C86.7464 42.448 86.9296 42.8743 86.9297 43.3789C86.9297 43.7115 86.8295 44.0409 86.624 44.3623C86.4184 44.6838 86.104 44.9384 85.6816 45.1328C85.2629 45.3235 84.7654 45.4209 84.1934 45.4209C83.412 45.4209 82.7499 45.2259 82.2041 44.8408C81.6586 44.4558 81.4009 43.8279 81.4307 42.9609L82.582 42.8896C82.5821 43.2186 82.6344 43.5026 82.7354 43.7344C82.8363 43.9661 83.023 44.1571 83.2959 44.3066C83.5687 44.4524 83.8904 44.5273 84.2529 44.5273C84.7614 44.5273 85.1432 44.4226 85.3975 44.2207C85.6516 44.0189 85.7782 43.7794 85.7783 43.5029C85.7783 43.3049 85.7039 43.1178 85.5508 42.9385C85.3938 42.759 85.0117 42.542 84.4023 42.2803C83.7931 42.0186 83.4045 41.8351 83.2363 41.7305C82.9522 41.5585 82.7395 41.3527 82.5938 41.1172C82.4479 40.8817 82.377 40.6122 82.377 40.3057C82.3771 39.7712 82.5856 39.3148 83.0117 38.9336C83.4379 38.5523 84.0293 38.3623 84.792 38.3623ZM114.076 38.3691C114.884 38.3692 115.523 38.6164 116.005 39.1172C116.487 39.6181 116.727 40.2986 116.727 41.1621C116.727 41.491 116.696 41.8311 116.637 42.1787H111.668C111.649 42.3095 111.643 42.4295 111.643 42.5342C111.643 43.166 111.785 43.6487 112.076 43.9814C112.368 44.314 112.723 44.4785 113.142 44.4785C113.534 44.4785 113.923 44.3476 114.304 44.0898C114.685 43.8319 114.981 43.4577 115.194 42.9717L116.312 43.0879C116.151 43.6411 115.784 44.1681 115.205 44.6689C114.626 45.1699 113.938 45.4209 113.138 45.4209C112.637 45.4209 112.18 45.305 111.762 45.0732C111.343 44.8452 111.025 44.5084 110.809 44.0674C110.588 43.6262 110.479 43.125 110.479 42.5605C110.479 41.8203 110.652 41.1057 110.992 40.4141C111.332 39.7227 111.773 39.2065 112.315 38.8701C112.857 38.5338 113.444 38.3662 114.076 38.3662V38.3691ZM98.9385 38.3662C99.7535 38.3662 100.408 38.6205 100.905 39.1289C101.402 39.6336 101.652 40.3212 101.652 41.1846C101.652 41.9622 101.496 42.6841 101.182 43.3496C100.868 44.015 100.422 44.5267 99.8428 44.8818C99.2633 45.2369 98.6539 45.417 98.0146 45.417C97.4914 45.4169 97.0128 45.3043 96.583 45.0801C96.1532 44.8558 95.8276 44.5381 95.5996 44.127C95.3716 43.7157 95.2598 43.2405 95.2598 42.7021C95.2598 41.3863 95.649 40.2952 96.4229 39.4316C97.0622 38.7213 97.8992 38.3662 98.9385 38.3662ZM142.322 38.3662C143.137 38.3664 143.791 38.6206 144.288 39.1289C144.785 39.6336 145.035 40.3212 145.035 41.1846C145.035 41.9622 144.878 42.6841 144.564 43.3496C144.25 44.0148 143.806 44.5267 143.227 44.8818C142.651 45.237 142.041 45.417 141.401 45.417C140.878 45.4169 140.4 45.3043 139.97 45.0801C139.54 44.8558 139.214 44.5381 138.986 44.127C138.758 43.7157 138.646 43.2405 138.646 42.7021C138.647 41.3866 139.035 40.2951 139.809 39.4316C140.447 38.722 141.284 38.3669 142.322 38.3662ZM173.393 38.3662C174.114 38.3662 174.69 38.5713 175.112 38.9785C175.535 39.386 175.748 39.9286 175.748 40.6016L174.619 40.6758C174.615 40.2498 174.492 39.9168 174.249 39.6738C174.006 39.431 173.684 39.3115 173.288 39.3115C172.828 39.3116 172.428 39.4574 172.088 39.749H172.084C171.748 40.0406 171.479 40.482 171.288 41.0801C171.097 41.6782 171 42.2241 171 42.7998C171 43.3755 171.128 43.8088 171.382 44.0967C171.636 44.3846 171.95 44.5303 172.32 44.5303C172.69 44.5302 173.05 44.3885 173.39 44.1045C173.73 43.8204 173.999 43.3868 174.193 42.8076L175.345 42.9268C175.057 43.7679 174.645 44.3962 174.114 44.8037C173.583 45.2111 172.977 45.417 172.301 45.417C171.568 45.4169 170.974 45.1808 170.518 44.7061C170.062 44.2313 169.834 43.5698 169.834 42.7178C169.834 41.9813 169.98 41.2553 170.271 40.5449C170.567 39.8348 170.982 39.2929 171.527 38.9229C172.073 38.5528 172.671 38.3663 173.393 38.3662ZM70.7197 38.3623C71.5533 38.3623 72.2152 38.5637 72.7012 38.96V38.9531C73.0749 39.2484 73.2617 39.6337 73.2617 40.1084C73.2617 40.4709 73.2091 40.8857 73.1045 41.3604L72.7314 43.0391C72.6118 43.5698 72.5518 44.0071 72.5518 44.3398C72.5518 44.5529 72.596 44.8597 72.6895 45.2559H71.5273C71.4638 45.0354 71.4187 44.7589 71.3926 44.4189C70.9927 44.759 70.6112 45.0129 70.2412 45.1699C69.8748 45.3307 69.4783 45.4092 69.0596 45.4092C68.4353 45.4092 67.9341 45.2257 67.5527 44.8594C67.1716 44.4931 66.9815 44.0259 66.9814 43.4541C66.9814 43.0765 67.0673 42.7438 67.2393 42.4521C67.4112 42.1606 67.6388 41.9286 67.9229 41.7529C68.2069 41.5773 68.5547 41.4498 68.9658 41.375C69.2238 41.3264 69.714 41.2858 70.4355 41.2559C71.1571 41.2259 71.6733 41.1507 71.9873 41.0273C72.077 40.7135 72.1211 40.4554 72.1211 40.2461C72.121 39.9808 72.0244 39.7714 71.8301 39.6182C71.561 39.4051 71.1722 39.3008 70.6602 39.3008C70.1779 39.3008 69.7812 39.409 69.4746 39.6221C69.1681 39.8352 68.944 40.1417 68.8057 40.5342L67.6426 40.4336C67.8818 39.7644 68.2556 39.2516 68.7715 38.8965C69.2874 38.5413 69.9346 38.3623 70.7197 38.3623ZM179.921 38.3623C180.754 38.3624 181.416 38.5637 181.902 38.96V38.9531C182.276 39.2484 182.463 39.6338 182.463 40.1084C182.463 40.4709 182.41 40.8857 182.306 41.3604L181.932 43.0391C181.812 43.5698 181.753 44.0072 181.753 44.3398C181.753 44.5529 181.797 44.8597 181.891 45.2559H180.729C180.665 45.0354 180.62 44.759 180.594 44.4189C180.194 44.759 179.812 45.0092 179.442 45.1699C179.072 45.3307 178.679 45.4092 178.261 45.4092C177.636 45.4092 177.135 45.2258 176.754 44.8594C176.373 44.493 176.182 44.026 176.182 43.4541C176.182 43.0766 176.268 42.7437 176.439 42.4521C176.611 42.1605 176.84 41.9286 177.124 41.7529C177.408 41.5772 177.756 41.4498 178.167 41.375C178.425 41.3264 178.915 41.2858 179.637 41.2559C180.358 41.226 180.873 41.1506 181.188 41.0273C181.277 40.7134 181.322 40.4554 181.322 40.2461C181.322 39.9808 181.225 39.7714 181.031 39.6182C180.762 39.4051 180.373 39.3008 179.86 39.3008C179.378 39.3008 178.982 39.4091 178.676 39.6221C178.369 39.8352 178.145 40.1417 178.007 40.5342L176.844 40.4336C177.083 39.7644 177.457 39.2517 177.973 38.8965C178.489 38.5413 179.136 38.3623 179.921 38.3623ZM109.234 38.5186H110.363L110.173 39.4092H109.048L108.267 43.1357C108.17 43.61 108.12 43.8945 108.12 43.9883C108.12 44.1228 108.158 44.2278 108.236 44.2988C108.315 44.3698 108.442 44.4072 108.621 44.4072C108.875 44.4072 109.104 44.3853 109.302 44.333L109.111 45.2705C108.835 45.3415 108.569 45.3789 108.312 45.3789C107.855 45.3789 107.489 45.2672 107.22 45.043C107.014 44.8748 106.913 44.643 106.913 44.3516C106.913 44.202 106.969 43.8616 107.077 43.3271L107.896 39.4092H106.987L107.018 39.2705L106.838 39.6816C106.64 39.536 106.419 39.4648 106.184 39.4648C105.784 39.465 105.369 39.6892 104.946 40.1377C104.52 40.5863 104.191 41.3902 103.948 42.5566L103.376 45.2637H102.284L103.694 38.5156H104.711L104.427 39.8945C104.774 39.375 105.115 38.9897 105.447 38.7393C105.78 38.4889 106.12 38.3663 106.468 38.3662C106.662 38.3662 106.898 38.4292 107.171 38.5488L107.179 38.5156H108.087L108.438 36.8594L109.75 36.0684L109.234 38.5186ZM165.654 38.5156H166.783L166.593 39.4053H165.474L164.693 43.1289C164.596 43.6036 164.548 43.888 164.548 43.9814C164.548 44.1157 164.585 44.22 164.663 44.291C164.742 44.362 164.869 44.3994 165.049 44.3994C165.303 44.3994 165.531 44.3775 165.729 44.3252L165.538 45.2637C165.262 45.3347 164.996 45.372 164.738 45.3721C164.282 45.3721 163.916 45.2595 163.646 45.0352C163.441 44.8669 163.34 44.6353 163.34 44.3438C163.34 44.1942 163.396 43.8539 163.504 43.3193L164.323 39.4014H163.415L163.598 38.5117H164.506L164.854 36.8555L166.17 36.0625L165.654 38.5156ZM78.7588 38.3662C79.3041 38.3664 79.7339 38.5154 80.0439 38.8105C80.3542 39.1096 80.5107 39.5028 80.5107 40C80.5107 40.2505 80.455 40.6428 80.3467 41.1807L79.4902 45.2676H78.3389L79.2363 40.9902C79.326 40.5753 79.3711 40.2684 79.3711 40.0703C79.371 39.8461 79.2919 39.6627 79.1387 39.5244C78.9854 39.3863 78.7611 39.3154 78.4697 39.3154C77.879 39.3154 77.3554 39.5287 76.8955 39.9512C76.4358 40.3737 76.0996 41.1029 75.8828 42.1309L75.2285 45.2676H74.0771L75.4863 38.5186H76.5293L76.2822 39.6934C76.7346 39.2335 77.1612 38.8967 77.5537 38.6836C77.9455 38.4709 78.3484 38.3666 78.7588 38.3662ZM64.0498 37.0127H61.0176L59.2979 45.2637H58.0527L59.7725 37.0127H56.7188L56.9395 35.9502H64.2705L64.0498 37.0127ZM66.6934 38.3662C66.9214 38.3663 67.2017 38.4479 67.5381 38.6123L67.5342 38.6162L67.0635 39.6816C66.8654 39.5359 66.6446 39.4649 66.4092 39.4648C66.0092 39.4648 65.5943 39.6892 65.1719 40.1377C64.7457 40.5863 64.4159 41.3902 64.1729 42.5566L63.6016 45.2637H62.5098L63.9189 38.5156H64.9355L64.6514 39.8945C64.9991 39.3749 65.3401 38.9897 65.6729 38.7393C66.0055 38.489 66.3458 38.3662 66.6934 38.3662ZM132.766 44.209H137.6L137.379 45.2637H131.3L133.24 35.9502H134.485L132.766 44.209ZM154.427 45.2637H153.279L154.688 38.5186H155.836L154.427 45.2637ZM167.755 45.2637H166.604L168.017 38.5186H169.164L167.755 45.2637ZM71.8184 41.8506C71.654 41.9141 71.4818 41.9625 71.2988 41.9961C71.1157 42.0297 70.8093 42.0671 70.376 42.1045C69.7069 42.1643 69.2357 42.2394 68.959 42.3291C68.6823 42.4188 68.4723 42.5645 68.334 42.7627C68.1959 42.9644 68.1251 43.1811 68.125 43.4238C68.125 43.7453 68.2374 44.0112 68.458 44.2168C68.6786 44.4223 68.9962 44.5273 69.4072 44.5273C69.7886 44.5273 70.1554 44.4265 70.5068 44.2246C70.8582 44.0227 71.138 43.7417 71.3398 43.3828L71.3438 43.3867C71.5456 43.0279 71.7025 42.5158 71.8184 41.8506ZM181.016 41.8506C180.855 41.9141 180.683 41.9625 180.5 41.9961C180.317 42.0297 180.01 42.0671 179.576 42.1045C178.907 42.1643 178.437 42.2394 178.16 42.3291C177.883 42.4188 177.673 42.5645 177.535 42.7627C177.397 42.9644 177.326 43.181 177.326 43.4238C177.326 43.7453 177.439 44.0112 177.659 44.2168C177.88 44.4222 178.197 44.5273 178.608 44.5273C178.99 44.5273 179.356 44.4263 179.707 44.2246C180.058 44.0227 180.339 43.7417 180.541 43.3828V43.3867C180.743 43.0279 180.9 42.5158 181.016 41.8506ZM98.8936 39.248C98.5347 39.2481 98.2055 39.3339 97.9102 39.5059C97.6148 39.6778 97.3457 39.9288 97.1064 40.2578C96.8673 40.5868 96.6912 40.9719 96.5791 41.4092C96.467 41.8502 96.4111 42.2391 96.4111 42.583C96.4111 43.2183 96.5608 43.7003 96.8672 44.0293C97.1738 44.3583 97.5592 44.5234 98.0303 44.5234C98.2731 44.5234 98.516 44.4748 98.7588 44.374C98.9981 44.2768 99.2223 44.1228 99.4316 43.9209C99.641 43.719 99.8171 43.4873 99.9629 43.2256C100.109 42.964 100.225 42.6837 100.314 42.3848V42.3809C100.445 41.9623 100.513 41.5587 100.513 41.1738C100.513 40.5645 100.359 40.0894 100.053 39.7529C99.7462 39.4165 99.3609 39.248 98.8936 39.248ZM142.284 39.248C141.925 39.248 141.596 39.3339 141.301 39.5059C141.005 39.6778 140.736 39.9288 140.497 40.2578C140.258 40.5868 140.082 40.9718 139.97 41.4092C139.858 41.8503 139.802 42.2391 139.802 42.583C139.802 43.2184 139.951 43.7003 140.258 44.0293C140.564 44.3582 140.949 44.5233 141.42 44.5234C141.663 44.5234 141.906 44.4749 142.149 44.374C142.389 44.2768 142.613 44.1228 142.822 43.9209C143.032 43.7191 143.208 43.4872 143.354 43.2256C143.499 42.964 143.615 42.6837 143.705 42.3848V42.3809C143.836 41.9624 143.902 41.5587 143.902 41.1738C143.902 40.5646 143.75 40.0894 143.443 39.7529C143.137 39.4165 142.751 39.2481 142.284 39.248ZM91.7832 39.293C91.4879 39.293 91.2182 39.3712 90.9678 39.5244C90.7173 39.6777 90.4856 39.9102 90.2725 40.2168C90.0595 40.527 89.8795 40.901 89.7412 41.3457C89.603 41.7903 89.5323 42.179 89.5322 42.5078C89.5322 43.0086 89.5696 43.3602 89.6406 43.5547C89.7453 43.8276 89.9171 44.0525 90.1602 44.2207C90.3994 44.3889 90.6803 44.4746 90.998 44.4746C91.6559 44.4745 92.1902 44.1042 92.5977 43.3604H92.6055C93.0129 42.6165 93.2148 41.8577 93.2148 41.084C93.2148 40.5122 93.0764 40.071 92.8037 39.7607C92.5309 39.4505 92.1906 39.293 91.7832 39.293ZM149.286 39.293C149.01 39.293 148.737 39.3682 148.476 39.5176C148.214 39.6671 147.97 39.8946 147.742 40.2012C147.514 40.5077 147.342 40.8785 147.227 41.3047C147.111 41.7307 147.051 42.0558 147.051 42.2764C147.051 42.7399 147.096 43.0875 147.186 43.3193C147.313 43.6483 147.492 43.8954 147.728 44.0674C147.963 44.2393 148.225 44.3252 148.513 44.3252C148.89 44.3252 149.264 44.1941 149.638 43.9287C150.012 43.6633 150.311 43.2524 150.543 42.6992H150.539C150.771 42.1423 150.887 41.6149 150.887 41.1104C150.887 40.557 150.733 40.1151 150.427 39.7861C150.12 39.4572 149.738 39.293 149.286 39.293ZM114.099 39.2627C113.609 39.2627 113.161 39.4314 112.757 39.7715C112.353 40.108 112.05 40.6204 111.852 41.3008H115.635C115.642 41.1811 115.643 41.0982 115.643 41.0459C115.643 40.4704 115.497 40.0291 115.209 39.7227C114.921 39.4162 114.551 39.2627 114.099 39.2627ZM155.335 37.6963H154.382L155.578 35.9502H157.025L155.335 37.6963ZM169.427 37.252H168.282L168.556 35.9502H169.699L169.427 37.252ZM109.75 36.0684L109.751 36.0664H109.754L109.75 36.0684Z" fill="#03A9EC"/>
<path d="M120.651 6.57227C122.566 6.57227 124.129 7.24587 125.299 8.56934H125.291C126.45 9.87783 127.037 11.8403 127.037 14.3936C127.037 17.5826 126.05 20.3235 124.099 22.5293C122.405 24.4358 120.371 25.4042 118.046 25.4043C115.945 25.4043 114.266 24.6489 113.051 23.1572L111.294 31.584H105.861L110.995 6.97656H116.184L115.926 8.20605C116.599 7.72388 117.245 7.354 117.858 7.10352C118.722 6.7521 119.664 6.57228 120.651 6.57227ZM137.016 6.57617C139.318 6.57621 141.06 7.05456 142.186 8.00391C143.333 8.96847 143.913 10.1691 143.913 11.5674C143.913 12.1019 143.865 12.6814 143.771 13.2832L143.76 13.2871C143.666 13.8854 143.349 15.4035 142.788 17.9307C142.343 19.9569 142.115 21.3852 142.115 22.1777C142.115 22.8768 142.242 23.6695 142.492 24.5293L142.631 25.0078H137.314L137.236 24.7383C137.12 24.3345 137.03 23.9234 136.967 23.501C136.391 24.0244 135.748 24.4508 135.053 24.7686C134.122 25.1948 133.164 25.4111 132.215 25.4111C130.69 25.4111 129.407 24.8992 128.405 23.8936C127.407 22.8916 126.898 21.5829 126.898 20.0127C126.898 18.2669 127.456 16.8462 128.551 15.792C129.65 14.734 131.52 14.1172 134.271 13.9004C136.283 13.7322 137.689 13.5339 138.455 13.3096C138.601 12.7824 138.676 12.356 138.676 12.042C138.676 11.6569 138.522 11.3426 138.208 11.0771C137.879 10.8006 137.359 10.6592 136.66 10.6592C135.909 10.6592 135.314 10.8082 134.899 11.1035C134.484 11.3951 134.212 11.803 134.059 12.3525L133.976 12.6514L128.637 12.1953L128.79 11.7432C129.336 10.1318 130.301 8.85265 131.662 7.94043C133.012 7.03589 134.713 6.57617 137.016 6.57617ZM179.501 6.57617C181.804 6.57619 183.546 7.05459 184.671 8.00391C185.819 8.96847 186.398 10.1691 186.398 11.5674C186.398 12.1019 186.35 12.6776 186.257 13.2832L186.245 13.2871C186.152 13.8854 185.834 15.4035 185.273 17.9307C184.829 19.9531 184.601 21.3814 184.601 22.1777C184.601 22.8768 184.724 23.6695 184.975 24.5293L185.112 25.0078H179.8L179.722 24.7383C179.602 24.3345 179.512 23.9234 179.448 23.501C178.873 24.0243 178.229 24.4508 177.534 24.7686C176.603 25.1947 175.646 25.4111 174.696 25.4111C173.171 25.411 171.889 24.8991 170.887 23.8936C169.889 22.8879 169.381 21.5828 169.381 20.0127C169.381 18.2668 169.938 16.8463 171.033 15.792C172.132 14.734 174.005 14.1172 176.753 13.9004C178.764 13.7322 180.17 13.5339 180.937 13.3096C181.082 12.7824 181.157 12.356 181.157 12.042C181.157 11.6569 181.003 11.3426 180.689 11.0771C180.36 10.8007 179.837 10.6592 179.142 10.6592C178.39 10.6592 177.796 10.8082 177.381 11.1035C176.966 11.3951 176.69 11.8067 176.54 12.3525L176.458 12.6514L171.119 12.1953L171.272 11.7432C171.818 10.1318 172.783 8.84891 174.144 7.94043C175.497 7.0358 177.198 6.57617 179.501 6.57617ZM69.0479 0C71.8703 6.47535e-05 74.177 0.673026 75.9004 2.00391C77.6276 3.33109 78.7869 5.28627 79.3477 7.81348L79.4375 8.21777L74.1436 8.81934L74.0537 8.52051C73.6761 7.25692 73.0664 6.29979 72.2402 5.66797C71.4178 5.03622 70.36 4.71785 69.0928 4.71777C67.59 4.71777 66.1877 5.11819 64.9316 5.89941C63.6831 6.67697 62.6848 7.90702 61.9707 9.55176C61.2454 11.2192 60.8789 13.1487 60.8789 15.0479C60.8789 16.9471 61.3051 18.3569 62.1426 19.2393C62.9762 20.1175 64.2322 20.5624 65.873 20.5625C66.8899 20.5625 67.9445 20.4167 69.0137 20.1289C70.0192 19.8598 70.9016 19.5382 71.6455 19.1719L72.248 16.252H66.165L67.1484 11.5186V11.5107H78.5811L76.3076 22.3457L76.1768 22.4316C74.8982 23.2578 73.3095 23.9681 71.459 24.54C69.6046 25.112 67.6861 25.4043 65.7607 25.4043C62.7328 25.4042 60.37 24.7013 58.7363 23.3145C56.5119 21.4265 55.3828 18.6666 55.3828 15.1074C55.3829 12.7485 55.8575 10.4528 56.7959 8.29199C57.9249 5.67893 59.5586 3.62275 61.6445 2.17969C63.7382 0.732846 66.2252 0 69.0479 0ZM96.2119 17.6611C95.898 19.1484 95.8311 19.687 95.8311 19.8779C95.8311 20.2742 95.9761 20.6076 96.2715 20.8955C96.5705 21.1833 96.9484 21.3251 97.4268 21.3252C97.7894 21.3252 98.1566 21.2536 98.5117 21.1152C98.8817 20.9732 99.2668 20.7492 99.6592 20.4502C100.055 20.1511 100.418 19.8001 100.732 19.415C101.046 19.03 101.345 18.5096 101.622 17.874C101.813 17.4067 102.033 16.6104 102.265 15.5078L104.052 6.98047H109.48L105.712 25H100.59L100.941 23.3027C99.1993 24.6972 97.3077 25.4042 95.3076 25.4043C93.7897 25.4043 92.5747 24.9585 91.6924 24.0762C90.8139 23.1939 90.3653 22.0056 90.3652 20.5439C90.3652 19.9159 90.5482 18.7268 90.9258 16.9062L93.0039 6.98047H98.4365L96.2119 17.6611ZM90.1074 6.57227C90.7839 6.57229 91.225 6.64776 91.7334 6.84961L92.0322 6.96484L90.9561 11.7881V11.792L90.5557 11.6494C90.193 11.5186 89.5907 11.4248 89.1309 11.4248C88.4132 11.4249 87.6621 11.7058 86.9033 12.2627C86.1295 12.8272 85.5165 13.5974 85.0791 14.5469C84.6268 15.5263 84.1703 17.1227 83.7217 19.2871L82.5215 25H77.0889L80.8574 6.97949H85.9795L85.5381 9.09961C86.955 7.42097 88.4849 6.57227 90.1074 6.57227ZM156.777 15.9971L164.367 0.411133H172.136L166.988 25H161.735L165.731 8.19531L157.731 25H152.482L151.745 7.9375L148.5 25H143.308L148.44 0.411133H156.094L156.777 15.9971ZM198.792 6.57227C199.514 6.57227 200.291 6.75225 201.106 7.10742V7.11035L201.458 7.26367L199.36 11.7432L199.039 11.627C198.658 11.4924 198.246 11.4219 197.816 11.4219C197.099 11.4219 196.347 11.7017 195.588 12.2588C194.814 12.827 194.201 13.5973 193.764 14.5469C193.311 15.5301 192.855 17.1226 192.406 19.2871L191.206 25H185.774L189.543 6.97949H194.665L194.224 9.09961C195.637 7.42111 197.17 6.57231 198.792 6.57227ZM137.654 17.0664C137.479 17.1 137.284 17.1303 137.067 17.1602C134.798 17.4331 133.314 17.8223 132.656 18.3232C132.241 18.641 132.039 19.0595 132.039 19.6016C132.039 20.0427 132.193 20.4052 132.511 20.708C132.832 21.0145 133.251 21.1641 133.797 21.1641C134.436 21.164 135.045 21.0074 135.609 20.6973C136.166 20.3907 136.589 19.9943 136.862 19.5195C137.15 19.0186 137.412 18.2106 137.644 17.1152V17.1191L137.654 17.0664ZM180.141 17.0664C179.965 17.1001 179.77 17.1302 179.553 17.1602C177.284 17.4331 175.8 17.8223 175.142 18.3232C174.727 18.641 174.524 19.0595 174.524 19.6016C174.524 20.0427 174.678 20.4052 174.996 20.708C175.318 21.0145 175.736 21.1641 176.282 21.1641C176.921 21.164 177.53 21.0074 178.095 20.6973C178.655 20.3907 179.079 19.9943 179.352 19.5195C179.639 19.0186 179.901 18.2106 180.129 17.1152V17.1191L180.141 17.0664ZM118.842 10.6592C118.038 10.6592 117.324 10.9393 116.655 11.5186C115.979 12.1055 115.444 12.9916 115.066 14.1504C114.681 15.3353 114.482 16.3823 114.482 17.2607C114.482 18.5057 114.782 19.4743 115.373 20.1436C115.96 20.8089 116.625 21.1309 117.41 21.1309C118.102 21.1308 118.756 20.8841 119.41 20.3721C120.068 19.8599 120.625 18.9811 121.07 17.7588H121.066C121.519 16.5101 121.751 15.3432 121.751 14.2852C121.751 13.0964 121.474 12.1842 120.921 11.5674C120.371 10.958 119.69 10.6592 118.842 10.6592Z" fill="#091197"/>
<path d="M25.7888 45.7307C24.4504 47.0691 22.2858 47.0691 20.9473 45.7307L1.00186 25.789C-0.336559 24.4505 -0.336559 22.2859 1.00186 20.9475L20.9473 1.00199C22.2858 -0.332694 24.4504 -0.332694 25.7888 1.00199L45.7343 20.9437C47.0728 22.2822 47.0728 24.4468 45.7343 25.7852L25.7888 45.7307Z" fill="#03A9EC"/>
<path d="M13.7812 26.0576C14.3196 25.5196 15.1943 25.5195 15.7363 26.0576L23.7822 34.1035C24.3203 34.6418 24.3202 35.5164 23.7822 36.0547L15.7363 44.1006C15.1943 44.6388 14.3196 44.6388 13.7812 44.1006L5.73535 36.0547C5.19732 35.5164 5.19725 34.6418 5.73535 34.1035L13.7812 26.0576ZM25.2959 14.543C25.8342 14.0047 26.7087 14.0048 27.2471 14.543L35.2969 22.5889V22.5918C35.8352 23.1302 35.8352 24.0056 35.2969 24.5439L27.2471 32.5889C26.7087 33.131 25.8343 33.131 25.2959 32.5889L17.25 24.5439C16.7118 24.0056 16.7117 23.1301 17.25 22.5918L25.2959 14.543ZM13.8184 3.06543C14.3604 2.52714 15.2313 2.52728 15.7734 3.06543L23.8193 11.1113C24.3575 11.6497 24.3576 12.5242 23.8193 13.0625L15.7734 21.1084C15.2313 21.6463 14.3566 21.6465 13.8184 21.1084L5.77344 13.0625C5.23508 12.5241 5.23508 11.6497 5.77344 11.1113L13.8184 3.06543Z" fill="#091197"/>
</g>
<defs>
<clipPath id="clip0_5868_2263">
<rect width="201.459" height="48" fill="white"/>
</clipPath>
</defs>
</svg>
